<svg width="24" height="24" viewBox="0 0 24 24" fill="none" xmlns="http://www.w3.org/2000/svg">
<path d="M19.25 2.75H4.75C3.64543 2.75 2.75 3.64543 2.75 4.75V19.25C2.75 20.3546 3.64543 21.25 4.75 21.25H19.25C20.3546 21.25 21.25 20.3546 21.25 19.25V4.75C21.25 3.64543 20.3546 2.75 19.25 2.75Z" stroke="black" stroke-width="0.5" stroke-linecap="round" stroke-linejoin="round"/>
<path d="M12 7.25V2.75M12 10.625C11.6575 10.625 11.3254 10.7422 11.0588 10.9571C10.7921 11.1719 10.607 11.4716 10.5343 11.8062C10.4615 12.1408 10.5054 12.4903 10.6587 12.7965C10.812 13.1027 11.0655 13.3473 11.377 13.4895L10.75 16.5H13.25L12.623 13.4895C12.9345 13.3473 13.188 13.1027 13.3413 12.7965C13.4946 12.4903 13.5385 12.1408 13.4657 11.8062C13.3929 11.4716 13.2079 11.1719 12.9412 10.9571C12.6746 10.7422 12.3424 10.625 12 10.625Z" stroke="black" stroke-width="0.5" stroke-linecap="round" stroke-linejoin="round"/>
<path d="M11.999 19.25C20.086 16.029 21.749 4.75 15.499 4.75C13.2955 4.75 12.249 6.217 12.249 7.25C12.249 10.2485 16.3225 9.6115 15.239 6.9865M11.999 19.25C3.91205 16.029 2.24905 4.75 8.49905 4.75C10.7025 4.75 11.749 6.217 11.749 7.25C11.749 10.2485 7.67555 9.6115 8.75905 6.9865M11.999 19.25V21.25M6.74805 13.561V19.061M3.99805 16.311H9.49805M8.69255 14.3665L4.80355 18.2555M4.80355 14.3665L8.69255 18.2555M17.9075 4.859V8.359M16.1575 6.609H19.6575M19.145 5.3715L16.67 7.8465M16.67 5.3715L19.145 7.8465M17.9075 17.0635V19.5635M16.6575 18.3135H19.1575M18.7915 17.43L17.024 19.198M17.024 17.43L18.792 19.198" stroke="black" stroke-width="0.5" stroke-linecap="round" stroke-linejoin="round"/>
</svg>
